<svg
   xmlns="http://www.w3.org/2000/svg"
   width="40"
   height="40"
   viewBox="0 0 40 40.000001"
   id="svg2"
   version="1.1"
>
  <g
     id="layer1"
     transform="translate(0,-1012.3622)" />
  <g
     id="layer2"
  >
    <circle
       transform="scale(-1,1)"
       style="fill:#444444"
       id="path3409"
       cx="-20.84367"
       cy="20.100466"
       r="17.930206" />
    <path
       style="fill:#ffffff"
       d="m 71.520293,31.312165 c 0,-0.03242 -0.440896,-1.598888 -0.979769,-3.481054 -0.538873,-1.882165 -0.979768,-3.471318 -0.979768,-3.531452 0,-0.10876 8.402166,-0.06374 13.842628,0.07418 l 2.359737,0.05982 0.04963,-0.39749 c 0.0273,-0.218618 0.05002,-1.926051 0.05049,-3.794293 l 8.63e-4,-3.396803 -8.099422,0 c -4.454683,0 -8.118175,-0.02482 -8.141093,-0.05514 -0.02292,-0.03033 0.397542,-1.434239 0.934359,-3.119805 0.536817,-1.685563 0.956471,-3.090546 0.932564,-3.12218 -0.02391,-0.03164 -1.28795,0.818788 -2.808985,1.889834 -1.521034,1.071043 -4.652551,3.276224 -6.958927,4.900401 -2.306376,1.624177 -4.238783,3.009485 -4.294238,3.078463 -0.10581,0.131614 -0.347965,-0.05881 9.741753,7.660085 4.206865,3.218356 4.350173,3.32494 4.350173,3.235426 z"
       id="path3421" />
    <path
       style="fill:#ffffff;fill-rule:evenodd;stroke:#000000;stroke-width:1.1194905px;stroke-linecap:butt;stroke-linejoin:miter;stroke-opacity:1"
       d="m 6.0390392,21.348184 c 0,0 9.3672738,7.055269 13.5959888,11.114199 5.643657,-6.579004 16.365539,-19.166324 16.365539,-19.166324 L 28.824906,5.8109866 19.217285,26.756377 11.446132,16.229005 Z"
       id="path3447" />
  </g>
</svg>
