<svg xmlns="http://www.w3.org/2000/svg"
  width="40" height="40" viewBox="0 0 40 40.000001" id="svg3336" version="1.1">
<g id="layer1" transform="translate(0,-1012.3622)">
<path style="fill:#444444"
d="m 6.6002818,1047.1836 c 1.102215,-4.7481 3.8829342,-8.7329 6.3418082,-9.0881 1.28745,-0.1859 4.128273,0.468 6.31294,1.4531 3.758812,1.695 4.131883,1.6995 6.947079,0.084 1.636226,-0.9391 3.431032,-1.4255 3.988458,-1.081 1.36967,0.8465 3.809433,6.8348 3.809433,9.3501 0,1.9462 -0.592807,2.0321 -14.019052,2.0321 l -14.0190522,0 0.638386,-2.75 z m 10.8542632,-13.7045 c -4.910784,-4.9108 -2.320658,-13.5455 4.063204,-13.5455 7.128706,0 10.443917,9.5252 4.847392,13.9274 -3.460164,2.7218 -5.911964,2.6167 -8.910596,-0.3819 z" 
id="path3403" />
</g></svg>
