<svg
   xmlns="http://www.w3.org/2000/svg"
   width="40"
   height="40"
   viewBox="-10 -10 60 60"
   id="svg2"
   version="1.1"
>
  <g
     id="layer1"
     transform="translate(0,-1012.3622)" />
  <g
     id="layer2"
  >
    <circle
       transform="scale(-1,1)"
       style="fill:#444444"
       id="path3409"
       cx="-20.150431"
       cy="19.85907"
       r="17.930206" />
    <path
       style="fill:#ffffff"
       d="m 71.520293,31.312165 c 0,-0.03242 -0.440896,-1.598888 -0.979769,-3.481054 -0.538873,-1.882165 -0.979768,-3.471318 -0.979768,-3.531452 0,-0.10876 8.402166,-0.06374 13.842628,0.07418 l 2.359737,0.05982 0.04963,-0.39749 c 0.0273,-0.218618 0.05002,-1.926051 0.05049,-3.794293 l 8.63e-4,-3.396803 -8.099422,0 c -4.454683,0 -8.118175,-0.02482 -8.141093,-0.05514 -0.02292,-0.03033 0.397542,-1.434239 0.934359,-3.119805 0.536817,-1.685563 0.956471,-3.090546 0.932564,-3.12218 -0.02391,-0.03164 -1.28795,0.818788 -2.808985,1.889834 -1.521034,1.071043 -4.652551,3.276224 -6.958927,4.900401 -2.306376,1.624177 -4.238783,3.009485 -4.294238,3.078463 -0.10581,0.131614 -0.347965,-0.05881 9.741753,7.660085 4.206865,3.218356 4.350173,3.32494 4.350173,3.235426 z"
       id="path3421"
    />
    <path
       style="fill:#ffffff"
       d="M 18.530134,30.704026 C 17.799558,29.681225 8.3843334,15.70391 8.3463094,15.58569 c -0.02567,-0.07981 0.141631,-0.282978 0.398396,-0.483816 l 0.442649,-0.346234 1.0030886,0.865583 c 0.551699,0.476072 2.81645,2.44994 5.032781,4.386372 2.216331,1.936434 4.062473,3.523698 4.102536,3.527255 0.04006,0.0035 2.849813,-2.832683 6.243886,-6.302756 l 6.171044,-6.309223 0.320199,0.131305 c 0.176109,0.07221 0.334857,0.141485 0.352771,0.153926 0.01791,0.01244 -2.719692,4.486885 -6.08357,9.943209 l -6.116141,9.920587 -0.710523,0 -0.710524,0 -0.262768,-0.367872 z"
       id="path3463"
    />
  </g>
</svg>
