<svg
   xmlns="http://www.w3.org/2000/svg"
   width="40"
   height="40"
   viewBox="0 0 40 40.000001"
   id="svg2"
   version="1.1"
>
  <g
     id="layer1"
     transform="translate(0,-1012.3622)" />
  <g
     id="layer2"
  >
    <g
       id="g3424"
       transform="matrix(-1,0,0,1,39.979613,1.1309646)">
      <circle
         r="17.930206"
         cy="1031.3317"
         cx="19.77634"
         id="path3409"
         style="fill:#444444"
         transform="translate(0,-1012.3622)" />
      <path
         id="path3421"
         d="m 19.584474,29.540801 c 0,-0.03242 0.440896,-1.598888 0.979769,-3.481054 0.538873,-1.882165 0.979768,-3.471318 0.979768,-3.531452 0,-0.10876 -8.402166,-0.06374 -13.8426284,0.07418 l -2.359737,0.05982 -0.049631,-0.39749 c -0.027297,-0.218618 -0.05002,-1.926051 -0.050493,-3.794293 l -8.627e-4,-3.396803 8.0994221,0 c 4.454683,0 8.118175,-0.02482 8.141093,-0.05514 0.02292,-0.03033 -0.397542,-1.434239 -0.934359,-3.119805 -0.536817,-1.685563 -0.956471,-3.0905452 -0.932564,-3.1221796 0.02391,-0.031636 1.28795,0.8187884 2.808985,1.8898336 1.521034,1.071043 4.652551,3.276224 6.958927,4.900401 2.306376,1.624177 4.238783,3.009485 4.294238,3.078463 0.10581,0.131614 0.347965,-0.05881 -9.741753,7.660085 -4.206865,3.218356 -4.350173,3.32494 -4.350173,3.235426 z"
         style="fill:#ffffff" />
    </g>
  </g>
</svg>
