<svg
   xmlns="http://www.w3.org/2000/svg"
   width="40"
   height="40"
   viewBox="0 0 40 40.000001"
   id="svg2"
   version="1.1"
>
  <g
     id="layer1"
     transform="translate(0,-1012.3622)" />
  <g
     id="layer2"
  >
    <circle
       transform="scale(-1,1)"
       style="fill:#444444"
       id="path3409"
       cx="-20.150431"
       cy="19.85907"
       r="17.930206" />
    <path
       style="fill:#ffffff"
       d="m 71.520293,31.312165 c 0,-0.03242 -0.440896,-1.598888 -0.979769,-3.481054 -0.538873,-1.882165 -0.979768,-3.471318 -0.979768,-3.531452 0,-0.10876 8.402166,-0.06374 13.842628,0.07418 l 2.359737,0.05982 0.04963,-0.39749 c 0.0273,-0.218618 0.05002,-1.926051 0.05049,-3.794293 l 8.63e-4,-3.396803 -8.099422,0 c -4.454683,0 -8.118175,-0.02482 -8.141093,-0.05514 -0.02292,-0.03033 0.397542,-1.434239 0.934359,-3.119805 0.536817,-1.685563 0.956471,-3.090546 0.932564,-3.12218 -0.02391,-0.03164 -1.28795,0.818788 -2.808985,1.889834 -1.521034,1.071043 -4.652551,3.276224 -6.958927,4.900401 -2.306376,1.624177 -4.238783,3.009485 -4.294238,3.078463 -0.10581,0.131614 -0.347965,-0.05881 9.741753,7.660085 4.206865,3.218356 4.350173,3.32494 4.350173,3.235426 z"
       id="path3421"
    />
    <g
       id="g3479"
       transform="matrix(0.76893149,0,0,0.90681459,4.7312323,3.0114792)">
      <path
         id="path3475"
         d="m 5.6057824,18.888093 c -1.54e-4,-0.481225 -0.020254,-1.380037 -0.044679,-1.997361 l -0.044394,-1.122409 0.7876218,-0.36277 c 0.4331928,-0.199522 3.5710847,-1.664118 6.9730948,-3.254656 3.402009,-1.590539 6.294321,-2.9413616 6.427361,-3.0018276 0.229518,-0.104309 0.351472,-0.05975 2.384344,0.8711476 1.689985,0.773889 11.442162,5.258847 12.284553,5.649579 l 0.190056,0.08816 0,1.996539 c 0,1.098098 -0.01554,1.996541 -0.03452,1.996541 -0.01899,0 -3.297344,-1.262069 -7.285233,-2.804598 l -7.250708,-2.804599 -0.299745,0.126403 c -0.164859,0.06952 -3.347558,1.312991 -7.072663,2.763273 -3.7251051,1.450283 -6.8273443,2.658177 -6.8938636,2.684207 -0.1094562,0.04284 -0.1209689,-0.0358 -0.121228,-0.82762 z"
         style="fill:#ffffff" />
      <path
         style="fill:#ffffff"
         d="m 5.5524159,26.572876 c -1.54e-4,-0.481225 -0.020254,-1.380037 -0.044679,-1.997361 l -0.044394,-1.122409 0.7876218,-0.36277 c 0.4331928,-0.199522 3.5710847,-1.664118 6.9730943,-3.254656 3.402009,-1.590539 6.294321,-2.941361 6.427361,-3.001827 0.229518,-0.104309 0.351472,-0.05975 2.384344,0.871147 1.689985,0.773889 11.442162,5.258847 12.284553,5.649579 l 0.190056,0.08816 0,1.996539 c 0,1.098098 -0.01554,1.996541 -0.03452,1.996541 -0.01899,0 -3.297344,-1.262069 -7.285233,-2.804598 l -7.250708,-2.804599 -0.299745,0.126403 c -0.164859,0.06952 -3.347558,1.312991 -7.072663,2.763273 -3.7251046,1.450283 -6.8273438,2.658177 -6.8938631,2.684207 -0.1094562,0.04284 -0.1209689,-0.0358 -0.121228,-0.82762 z"
         id="path3477"
      />
    </g>
  </g>
</svg>
